/* XPM */
static char * battery_xpm[] = {
"16 12 2 1",
" 	c None",
".	c #FFFFFF",
"                ",
"                ",
"  ............  ",
"  .          .  ",
"  . .. .. .. .. ",
"  . .. .. .. .. ",
"  . .. .. .. .. ",
"  . .. .. .. .. ",
"  .          .  ",
"  ............  ",
"                ",
"                "};
