/* XPM */
static char * note_xpm[] = {
"12 12 2 1",
" 	c None",
".	c #FFFFFF",
"            ",
"            ",
"   .......  ",
"   .     .  ",
"   .     .  ",
"   .     .  ",
"   .     .  ",
"   .     .  ",
" ...   ...  ",
" ...   ...  ",
" ...   ...  ",
"            "};
